# xmcd
#
# Track frame offsets: 
#        150
#        14748
#        30849
#        50702
#        67926
#        83506
#        102630
#        124922
#        145047
#        162239
#        185136
#        202360
#
# Disc length: 3049 seconds
#
# Revision: 0
# Processed by: cddbd v1.5.1PL0 Copyright (c) Steve Scherf et al.
# Submitted via: ExactAudioCopy v0.95a5
#
DISCID=ac0be70c
DTITLE=Faith Hill - Faith
DYEAR=1900
DGENRE=Country
TTITLE0=This Kiss
TTITLE1=You Give Me Love
TTITLE2=Let Me Let Go
TTITLE3=Love Ain't Like That
TTITLE4=Better Days
TTITLE5=My Wild Frontier
TTITLE6=The Secret Of Life
TTITLE7=Just To Hear You Say That You Love Me
TTITLE8=Me
TTITLE9=I Love You
TTITLE10=The Hard Way
TTITLE11=Somebody Stand By Me
EXTD=
EXTT0=
EXTT1=
EXTT2=
EXTT3=
EXTT4=
EXTT5=
EXTT6=
EXTT7=
EXTT8=
EXTT9=
EXTT10=
EXTT11=
PLAYORDER=
